<svg xmlns="http://www.w3.org/2000/svg" id="Layer_1" data-name="Layer 1" viewBox="0 0 2526.6 1640.65"><defs><style> .cls-1 { fill: #222222; } .cls-1, .cls-2, .cls-3 { stroke-width: 0px; } .cls-2 { fill: #887f73; } .cls-3 { fill: none; } </style></defs><rect class="cls-3" x="609.92" y="602.08" width="1440" height="560"/><path class="cls-1" d="m609.92,1139.24c118.89,15.98,249.69,73.14,352.4,11.18,102.69-61.95,119.22-202.24,154.4-316.9,31.14-101.5,52.51-204.6,37.86-309.76-14.69-105.48-59.82-201.59-121.21-288.62C966.69,140.6,900.84,17.54,786.25,1.55c-116.01-16.19-204.74,98.76-306.77,156.31-77.35,43.63-149.02,87.12-219.82,140.72-90.3,68.35-221.51,107.92-252.55,216.83-30.92,108.51,45.64,217.49,100.73,315.96,51.48,92.03,115.83,176.71,205.72,231.84,88.74,54.41,193.19,62.17,296.35,76.04"/><path class="cls-2" d="m2049.92,1638.39c94.91-2.47,198.87,8.28,274.78-48.76,74.76-56.17,84.33-160.86,119.52-247.49,33.52-82.5,87.42-159.67,82.01-248.55-5.61-92.14-43.4-185.47-112.17-247.04-66.03-59.12-161.34-63.71-249.06-76.38-76.8-11.09-152.73-11.55-227.95,7.49-77.58,19.64-151.08,50.77-211.13,103.66-66.23,58.33-121.1,128.88-148.26,212.85-30.42,94.05-48.67,197.44-14.45,290.18,35.2,95.42,112.45,172.74,202.61,219.8,86.31,45.05,186.78,36.76,284.11,34.23"/></svg>