<?xml version="1.0" standalone="no"?>
<svg viewBox="0 0 200 200" xmlns="http://www.w3.org/2000/svg">
  <path fill="#01CC80" d="M38,-66.2C44.3,-55,41.1,-36.2,45.2,-22.1C49.4,-8.1,60.9,1.2,65.5,13.6C70.2,26,68,41.5,59.5,51.9C51,62.2,36.1,67.3,22.4,67.3C8.6,67.3,-4.1,62.2,-15.3,56.8C-26.5,51.3,-36.1,45.5,-46,37.8C-55.9,30.1,-66,20.5,-71.6,7.9C-77.3,-4.8,-78.4,-20.6,-71.3,-31.1C-64.2,-41.7,-49,-47.1,-35.7,-55C-22.5,-63,-11.2,-73.7,2.3,-77.2C15.8,-80.8,31.6,-77.3,38,-66.2Z" transform="translate(100 100)" />
</svg>
