<svg xmlns="http://www.w3.org/2000/svg" xmlns:xlink="http://www.w3.org/1999/xlink" viewBox="0 0 430 430" width="430" height="430" preserveAspectRatio="xMidYMid meet" style="width: 100%; height: 100%; transform: translate3d(0px, 0px, 0px); content-visibility: visible;"><defs><clipPath id="__lottie_element_1567"><rect width="430" height="430" x="0" y="0"/></clipPath><clipPath id="__lottie_element_1569"><path d="M0,0 L430,0 L430,430 L0,430z"/></clipPath></defs><g clip-path="url(#__lottie_element_1567)"><g clip-path="url(#__lottie_element_1569)" transform="matrix(1,0,0,1,0,0)" opacity="1" style="display: block;"><g transform="matrix(1,0,0,1,-35,-35)" opacity="1" style="display: block;"><g opacity="1" transform="matrix(1,0,0,1,0,0)"><g opacity="1" transform="matrix(1,0,0,1,236.86700439453125,229.6750030517578)"><path stroke-linecap="round" stroke-linejoin="round" fill-opacity="0" class="secondary" stroke="rgb(83,83,83)" stroke-opacity="1" stroke-width="12.04" d=" M-173.86700439453125,15.324999809265137 C-173.86700439453125,15.324999809265137 19.36307716369629,15.534480094909668 19.36307716369629,15.534480094909668 M19.358076095581055,15.534480094909668 C19.358076095581055,15.534480094909668 -17.955923080444336,46.184478759765625 -17.955923080444336,46.184478759765625 M19.358076095581055,15.534480094909668 C19.358076095581055,15.534480094909668 -17.955923080444336,-15.115520477294922 -17.955923080444336,-15.115520477294922"/></g></g></g><g transform="matrix(1,0,0,1,-48.57867431640625,-34.99998474121094)" opacity="1" style="display: block;"><g opacity="1" transform="matrix(1,0,0,1,359.64300537109375,348.5360107421875)"><path stroke-linecap="round" stroke-linejoin="round" fill-opacity="0" class="primary" stroke="rgb(18,19,49)" stroke-opacity="1" stroke-width="12.04" d=" M-269.7449951171875,-138.2989959716797 C-269.7449951171875,-138.2989959716797 -269.5089111328125,-196.740478515625 -269.5089111328125,-196.740478515625 C-269.5089111328125,-196.740478515625 -50.6221923828125,-195.85060119628906 -50.6221923828125,-195.85060119628906 C-50.6221923828125,-195.85060119628906 -50.802146911621094,-151.4722442626953 -50.802146911621094,-151.4722442626953 C-50.802146911621094,-151.4722442626953 -51.12314987182617,-72.62188720703125 -51.12314987182617,-72.62188720703125 C-51.12314987182617,-72.62188720703125 -51.124908447265625,-72.19288635253906 -51.124908447265625,-72.19288635253906 C-51.124908447265625,-72.19288635253906 -51.42164993286133,0.765110969543457 -51.42164993286133,0.765110969543457 C-51.42164993286133,0.765110969543457 -51.484649658203125,0.7654644846916199 -51.484649658203125,0.7654644846916199 C-51.484649658203125,0.7654644846916199 -176.552001953125,0.7110971808433533 -176.552001953125,0.7110971808433533 M-235.76290893554688,0.06464574486017227 C-235.76290893554688,0.06464574486017227 -270.308349609375,-0.12476406991481781 -270.308349609375,-0.12476406991481781 C-270.308349609375,-0.12476406991481781 -269.7449951171875,-68.7979965209961 -269.7449951171875,-68.7979965209961 M28.594999313354492,0.6464514136314392 C28.594999313354492,0.6464514136314392 49.88670349121094,1.17311692237854 49.88670349121094,1.17311692237854 C49.88670349121094,1.17311692237854 50.185203552246094,-72.2152328491211 50.185203552246094,-72.2152328491211 C50.185203552246094,-72.2152328491211 -51.063148498535156,-72.626953125 -51.063148498535156,-72.626953125 C-51.063148498535156,-72.626953125 -51.12614822387695,-72.62724304199219 -51.12614822387695,-72.62724304199219 C-51.12614822387695,-72.62724304199219 -51.42464828491211,0.7611109614372253 -51.42464828491211,0.7611109614372253 C-51.42464828491211,0.7611109614372253 -51.36164855957031,0.7614038586616516 -51.36164855957031,0.7614038586616516 C-51.36164855957031,0.7614038586616516 -29.828548431396484,1.146451473236084 -29.828548431396484,1.146451473236084 M50.185203552246094,-72.2152328491211 C50.185203552246094,-72.2152328491211 -51.12614822387695,-72.62724304199219 -51.12614822387695,-72.62724304199219 C-51.12614822387695,-72.62724304199219 -50.80579376220703,-151.46923828125 -50.80579376220703,-151.46923828125 C-50.80579376220703,-151.46923828125 -11.274954795837402,-152.15000915527344 -11.274954795837402,-152.15000915527344 C3.7446913719177246,-152.2168426513672 17.436874389648438,-143.58694458007812 23.82097816467285,-130.03057861328125 C23.82097816467285,-130.03057861328125 50.185203552246094,-72.2152328491211 50.185203552246094,-72.2152328491211z M-176.55499267578125,0 C-176.55499267578125,15.854999542236328 -189.4080047607422,28.70800018310547 -205.26300048828125,28.70800018310547 C-221.1179962158203,28.70800018310547 -233.9709930419922,15.854999542236328 -233.9709930419922,0 C-233.9709930419922,-15.854999542236328 -221.1179962158203,-28.70800018310547 -205.26300048828125,-28.70800018310547 C-189.4080047607422,-28.70800018310547 -176.55499267578125,-15.854999542236328 -176.55499267578125,0z M28.70800018310547,0 C28.70800018310547,15.854999542236328 15.854999542236328,28.70800018310547 0,28.70800018310547 C-15.854999542236328,28.70800018310547 -28.70800018310547,15.854999542236328 -28.70800018310547,0 C-28.70800018310547,-15.854999542236328 -15.854999542236328,-28.70800018310547 0,-28.70800018310547 C15.854999542236328,-28.70800018310547 28.70800018310547,-15.854999542236328 28.70800018310547,0z"/></g></g></g></g></svg>