
<svg xmlns="http://www.w3.org/2000/svg" xmlns:xlink="http://www.w3.org/1999/xlink" viewBox="0 0 430 430" width="430" height="430" preserveAspectRatio="xMidYMid meet" style="width: 100%; height: 100%; transform: translate3d(0px, 0px, 0px); content-visibility: visible;"><defs><clipPath id="__lottie_element_3008"><rect width="430" height="430" x="0" y="0"/></clipPath><clipPath id="__lottie_element_3010"><path d="M0,0 L430,0 L430,430 L0,430z"/></clipPath><g id="__lottie_element_3017"><g transform="matrix(0.9810552000999451,-0.19372834265232086,0.19372834265232086,0.9810552000999451,203.6592559814453,231.39231872558594)" opacity="1" style="display: block;"><g opacity="1" transform="matrix(1,0,0,1,0,0)"><path stroke-linecap="round" stroke-linejoin="round" fill-opacity="0" stroke="rgb(8,168,138)" stroke-opacity="1" stroke-width="0" d=" M76.99800109863281,61.73099899291992 C76.99800109863281,61.73099899291992 181,61.73099899291992 181,61.73099899291992 C181,61.73099899291992 181,-8.185999870300293 181,-8.185999870300293 C181,-8.185999870300293 76.99800109863281,-8.185999870300293 76.99800109863281,-8.185999870300293 C57.691001892089844,-8.185999870300293 42.040000915527344,7.466000080108643 42.040000915527344,26.773000717163086 C42.040000915527344,26.773000717163086 42.040000915527344,26.773000717163086 42.040000915527344,26.773000717163086 C42.040000915527344,46.08000183105469 57.691001892089844,61.73099899291992 76.99800109863281,61.73099899291992z"/><path fill="rgb(8,168,138)" fill-opacity="1" d=" M76.99800109863281,61.73099899291992 C76.99800109863281,61.73099899291992 181,61.73099899291992 181,61.73099899291992 C181,61.73099899291992 181,-8.185999870300293 181,-8.185999870300293 C181,-8.185999870300293 76.99800109863281,-8.185999870300293 76.99800109863281,-8.185999870300293 C57.691001892089844,-8.185999870300293 42.040000915527344,7.466000080108643 42.040000915527344,26.773000717163086 C42.040000915527344,26.773000717163086 42.040000915527344,26.773000717163086 42.040000915527344,26.773000717163086 C42.040000915527344,46.08000183105469 57.691001892089844,61.73099899291992 76.99800109863281,61.73099899291992z"/></g><g opacity="1" transform="matrix(1,0,0,1,0,0)"><path fill="rgb(8,168,138)" fill-opacity="1" d=" M91.12200164794922,26.773000717163086 C91.12200164794922,34.814998626708984 84.60299682617188,41.33399963378906 76.56099700927734,41.33399963378906 C68.51899719238281,41.33399963378906 62,34.814998626708984 62,26.773000717163086 C62,18.731000900268555 68.51899719238281,12.211000442504883 76.56099700927734,12.211000442504883 C84.60299682617188,12.211000442504883 91.12200164794922,18.731000900268555 91.12200164794922,26.773000717163086z"/></g></g></g><g id="__lottie_element_3026"><g transform="matrix(0.9949402809143066,-0.1004679799079895,0.1004679799079895,0.9949402809143066,205.2691192626953,228.99154663085938)" opacity="1" style="display: block;"><g opacity="1" transform="matrix(1,0,0,1,0,0)"><path fill="rgb(18,19,49)" fill-opacity="1" d=" M171.5,-104 C171.5,-104 -178,-104 -178,-104 C-178,-104 -179,66 -179,66 C-179,66 171,66 171,66 C171,66 171.5,-104 171.5,-104z"/><path stroke-linecap="butt" stroke-linejoin="miter" fill-opacity="0" stroke-miterlimit="4" stroke="rgb(195,114,114)" stroke-opacity="1" stroke-width="0" d=" M171.5,-104 C171.5,-104 -178,-104 -178,-104 C-178,-104 -179,66 -179,66 C-179,66 171,66 171,66 C171,66 171.5,-104 171.5,-104z" style="mix-blend-mode: soft-light;"/></g></g></g><filter id="__lottie_element_3029" filterUnits="objectBoundingBox" x="0%" y="0%" width="100%" height="100%"><feComponentTransfer in="SourceGraphic"><feFuncA type="table" tableValues="1.0 0.0"/></feComponentTransfer></filter><mask id="__lottie_element_3026_2" mask-type="alpha"><g filter="url(#__lottie_element_3029)"><rect width="430" height="430" x="0" y="0" fill="#ffffff" opacity="0"/><use xmlns:ns1="http://www.w3.org/1999/xlink" ns1:href="#__lottie_element_3026"/></g></mask><filter id="__lottie_element_3030" filterUnits="objectBoundingBox" x="0%" y="0%" width="100%" height="100%"><feComponentTransfer in="SourceGraphic"><feFuncA type="table" tableValues="1.0 0.0"/></feComponentTransfer></filter><mask id="__lottie_element_3017_2" mask-type="alpha"><g filter="url(#__lottie_element_3030)"><rect width="430" height="430" x="0" y="0" fill="#ffffff" opacity="0"/><use xmlns:ns2="http://www.w3.org/1999/xlink" ns2:href="#__lottie_element_3017"/></g></mask></defs><g clip-path="url(#__lottie_element_3008)"><g clip-path="url(#__lottie_element_3010)" transform="matrix(1,0,0,1,0,0)" opacity="1" style="display: block;"><g mask="url(#__lottie_element_3017_2)" style="display: block;"><g transform="matrix(0.9949402809143066,-0.1004679799079895,0.1004679799079895,0.9949402809143066,205.00209045410156,223.99810791015625)" opacity="1"><g opacity="1" transform="matrix(1,0,0,1,0,0)"><path stroke-linecap="round" stroke-linejoin="round" fill-opacity="0" class="primary" stroke="rgb(18,19,49)" stroke-opacity="1" stroke-width="12" d=" M-162.36099243164062,-125.56300354003906 C-162.36099243164062,-125.56300354003906 -162.36099243164062,127.5250015258789 -162.36099243164062,127.5250015258789 C-162.36099243164062,144.17100524902344 -148.86599731445312,157.66600036621094 -132.22000122070312,157.66600036621094 C-132.22000122070312,157.66600036621094 162,157.66600036621094 162,157.66600036621094 C162,157.66600036621094 162,-95.55999755859375 162,-95.55999755859375 C162,-95.55999755859375 -132.35899353027344,-95.55999755859375 -132.35899353027344,-95.55999755859375 C-148.9290008544922,-95.55999755859375 -162.36099243164062,-108.99299621582031 -162.36099243164062,-125.56300354003906 C-162.36099243164062,-125.56300354003906 -162.36099243164062,-125.56300354003906 -162.36099243164062,-125.56300354003906 C-162.36099243164062,-142.13299560546875 -148.9290008544922,-155.5659942626953 -132.35899353027344,-155.5659942626953 C-132.35899353027344,-155.5659942626953 -59.52799987792969,-155.5659942626953 7.510000228881836,-155.5659942626953"/></g></g></g><g transform="matrix(0.9810552000999451,-0.19372834265232086,0.19372834265232086,0.9810552000999451,203.6592559814453,231.39231872558594)" opacity="1" style="display: block;"><g opacity="1" transform="matrix(1,0,0,1,0,0)"><path stroke-linecap="round" stroke-linejoin="round" fill-opacity="0" class="secondary" stroke="rgb(83,83,83)" stroke-opacity="1" stroke-width="12" d=" M76.99800109863281,61.73099899291992 C76.99800109863281,61.73099899291992 181,61.73099899291992 181,61.73099899291992 C181,61.73099899291992 181,-8.185999870300293 181,-8.185999870300293 C181,-8.185999870300293 76.99800109863281,-8.185999870300293 76.99800109863281,-8.185999870300293 C57.691001892089844,-8.185999870300293 42.040000915527344,7.466000080108643 42.040000915527344,26.773000717163086 C42.040000915527344,26.773000717163086 42.040000915527344,26.773000717163086 42.040000915527344,26.773000717163086 C42.040000915527344,46.08000183105469 57.691001892089844,61.73099899291992 76.99800109863281,61.73099899291992z"/></g><g opacity="1" transform="matrix(1,0,0,1,0,0)"><path class="secondary" fill="rgb(83,83,83)" fill-opacity="1" d=" M91.12200164794922,26.773000717163086 C91.12200164794922,34.814998626708984 84.60299682617188,41.33399963378906 76.56099700927734,41.33399963378906 C68.51899719238281,41.33399963378906 62,34.814998626708984 62,26.773000717163086 C62,18.731000900268555 68.51899719238281,12.211000442504883 76.56099700927734,12.211000442504883 C84.60299682617188,12.211000442504883 91.12200164794922,18.731000900268555 91.12200164794922,26.773000717163086z"/></g></g><g mask="url(#__lottie_element_3026_2)" style="display: block;"><g transform="matrix(0.9869649410247803,-0.16093523800373077,0.16093523800373077,0.9869649410247803,209.19790649414062,214.5559844970703)" opacity="1"><g opacity="1" transform="matrix(1,0,0,1,0,0)"><path stroke-linecap="round" stroke-linejoin="round" fill-opacity="0" class="primary" stroke="rgb(18,19,49)" stroke-opacity="1" stroke-width="12" d=" M-144.48699951171875,-88.4469985961914 C-144.48699951171875,-88.4469985961914 114.47599792480469,-181.8459930419922 114.47599792480469,-181.8459930419922 C114.47599792480469,-181.8459930419922 146.1580047607422,-94.00299835205078 146.1580047607422,-94.00299835205078 C146.1580047607422,-94.00299835205078 150.58399963378906,-80.0979995727539 150.58399963378906,-80.0979995727539"/></g><g opacity="1" transform="matrix(1,0,0,1,114,-183)"><path stroke-linecap="butt" stroke-linejoin="miter" fill-opacity="0" stroke-miterlimit="4" class="primary" stroke="rgb(18,19,49)" stroke-opacity="1" stroke-width="12" d=" M23.010000228881836,58.12099838256836 C15.88700008392334,60.946998596191406 8.123000144958496,62.5 0,62.5 C-27.753999710083008,62.5 -51.30799865722656,44.36899948120117 -59.452999114990234,19.31599998474121"/></g></g></g></g></g></svg>