<svg xmlns="http://www.w3.org/2000/svg" width="13.597" height="15" viewBox="0 0 13.597 15" class="md:w-[14px] w-5 h-auto"><g id="bag" transform="translate(0.435 0.5)"><path id="Path" d="M12.657,9.62a.5.5,0,0,1-.5.562H.566a.5.5,0,0,1-.5-.562L1.218.438A.5.5,0,0,1,1.714,0h9.3a.5.5,0,0,1,.5.438Z" transform="translate(0 3.818)" fill="none" stroke="#111" stroke-linecap="square" stroke-miterlimit="10" stroke-width="1"></path><path id="Path-2" data-name="Path" d="M0,5.727V2.545A2.553,2.553,0,0,1,2.545,0h0A2.553,2.553,0,0,1,5.091,2.545V5.727" transform="translate(3.818)" fill="none" stroke="#111" stroke-linecap="round" stroke-miterlimit="10" stroke-width="1"></path></g></svg>
