<svg xmlns="http://www.w3.org/2000/svg" xmlns:xlink="http://www.w3.org/1999/xlink" viewBox="0 0 430 430" width="430" height="430" preserveAspectRatio="xMidYMid meet" style="width: 100%; height: 100%; transform: translate3d(0px, 0px, 0px); content-visibility: visible;"><defs><clipPath id="__lottie_element_1850"><rect width="430" height="430" x="0" y="0"/></clipPath><clipPath id="__lottie_element_1852"><path d="M0,0 L430,0 L430,430 L0,430z"/></clipPath><g id="__lottie_element_1859"><g transform="matrix(1,0,0,1,-35,-35)" opacity="1" style="display: block;"><g opacity="1" transform="matrix(1,0,0,1,250,201.76499938964844)"><path fill="rgb(255,0,0)" fill-opacity="1" d=" M-117.52799987792969,-0.26499998569488525 C-117.52799987792969,-0.26499998569488525 -92.20600128173828,-30.389999389648438 -92.20600128173828,-30.389999389648438 C-92.20600128173828,-30.389999389648438 -94.98899841308594,-69.6510009765625 -94.98899841308594,-69.6510009765625 C-94.98899841308594,-69.6510009765625 -56.775001525878906,-79.11499786376953 -56.775001525878906,-79.11499786376953 C-56.775001525878906,-79.11499786376953 -35.98099899291992,-112.54499816894531 -35.98099899291992,-112.54499816894531 C-35.98099899291992,-112.54499816894531 0.5,-97.71399688720703 0.5,-97.71399688720703 C0.5,-97.71399688720703 36.98099899291992,-112.54499816894531 36.98099899291992,-112.54499816894531 C36.98099899291992,-112.54499816894531 57.775001525878906,-79.11399841308594 57.775001525878906,-79.11399841308594 C57.775001525878906,-79.11399841308594 95.98999786376953,-69.6500015258789 95.98999786376953,-69.6500015258789 C95.98999786376953,-69.6500015258789 93.20600128173828,-30.389999389648438 93.20600128173828,-30.389999389648438 C93.20600128173828,-30.389999389648438 118.52799987792969,-0.26499998569488525 118.52799987792969,-0.26499998569488525 C118.52799987792969,-0.26499998569488525 93.20600128173828,29.860000610351562 93.20600128173828,29.860000610351562 C93.20600128173828,29.860000610351562 95.98899841308594,69.12000274658203 95.98899841308594,69.12000274658203 C95.98899841308594,69.12000274658203 57.775001525878906,78.58399963378906 57.775001525878906,78.58399963378906 C57.775001525878906,78.58399963378906 36.98099899291992,112.01399993896484 36.98099899291992,112.01399993896484 C36.98099899291992,112.01399993896484 0.5,97.18299865722656 0.5,97.18299865722656 C0.5,97.18299865722656 -35.98099899291992,112.01399993896484 -35.98099899291992,112.01399993896484 C-35.98099899291992,112.01399993896484 -56.775001525878906,78.58399963378906 -56.775001525878906,78.58399963378906 C-56.775001525878906,78.58399963378906 -94.98999786376953,69.11900329589844 -94.98999786376953,69.11900329589844 C-94.98999786376953,69.11900329589844 -92.20600128173828,29.860000610351562 -92.20600128173828,29.860000610351562 C-92.20600128173828,29.860000610351562 -117.52799987792969,-0.26499998569488525 -117.52799987792969,-0.26499998569488525z"/></g></g></g><g id="__lottie_element_1865"><g transform="matrix(1,0,0,1,-35,-35)" opacity="1" style="display: block;"><g opacity="1" transform="matrix(1,0,0,1,250,201.76499938964844)"><path fill="rgb(255,0,0)" fill-opacity="1" d=" M-117.52799987792969,-0.26499998569488525 C-117.52799987792969,-0.26499998569488525 -92.20600128173828,-30.389999389648438 -92.20600128173828,-30.389999389648438 C-92.20600128173828,-30.389999389648438 -94.98899841308594,-69.6510009765625 -94.98899841308594,-69.6510009765625 C-94.98899841308594,-69.6510009765625 -56.775001525878906,-79.11499786376953 -56.775001525878906,-79.11499786376953 C-56.775001525878906,-79.11499786376953 -35.98099899291992,-112.54499816894531 -35.98099899291992,-112.54499816894531 C-35.98099899291992,-112.54499816894531 0.5,-97.71399688720703 0.5,-97.71399688720703 C0.5,-97.71399688720703 36.98099899291992,-112.54499816894531 36.98099899291992,-112.54499816894531 C36.98099899291992,-112.54499816894531 57.775001525878906,-79.11399841308594 57.775001525878906,-79.11399841308594 C57.775001525878906,-79.11399841308594 95.98999786376953,-69.6500015258789 95.98999786376953,-69.6500015258789 C95.98999786376953,-69.6500015258789 93.20600128173828,-30.389999389648438 93.20600128173828,-30.389999389648438 C93.20600128173828,-30.389999389648438 118.52799987792969,-0.26499998569488525 118.52799987792969,-0.26499998569488525 C118.52799987792969,-0.26499998569488525 93.20600128173828,29.860000610351562 93.20600128173828,29.860000610351562 C93.20600128173828,29.860000610351562 95.98899841308594,69.12000274658203 95.98899841308594,69.12000274658203 C95.98899841308594,69.12000274658203 57.775001525878906,78.58399963378906 57.775001525878906,78.58399963378906 C57.775001525878906,78.58399963378906 36.98099899291992,112.01399993896484 36.98099899291992,112.01399993896484 C36.98099899291992,112.01399993896484 0.5,97.18299865722656 0.5,97.18299865722656 C0.5,97.18299865722656 -35.98099899291992,112.01399993896484 -35.98099899291992,112.01399993896484 C-35.98099899291992,112.01399993896484 -56.775001525878906,78.58399963378906 -56.775001525878906,78.58399963378906 C-56.775001525878906,78.58399963378906 -94.98999786376953,69.11900329589844 -94.98999786376953,69.11900329589844 C-94.98999786376953,69.11900329589844 -92.20600128173828,29.860000610351562 -92.20600128173828,29.860000610351562 C-92.20600128173828,29.860000610351562 -117.52799987792969,-0.26499998569488525 -117.52799987792969,-0.26499998569488525z"/></g></g></g><filter id="__lottie_element_1871" filterUnits="objectBoundingBox" x="0%" y="0%" width="100%" height="100%"><feComponentTransfer in="SourceGraphic"><feFuncA type="table" tableValues="1.0 0.0"/></feComponentTransfer></filter><mask id="__lottie_element_1865_2" mask-type="alpha"><g filter="url(#__lottie_element_1871)"><rect width="430" height="430" x="0" y="0" fill="#ffffff" opacity="0"/><use xmlns:ns1="http://www.w3.org/1999/xlink" ns1:href="#__lottie_element_1865"/></g></mask><filter id="__lottie_element_1872" filterUnits="objectBoundingBox" x="0%" y="0%" width="100%" height="100%"><feComponentTransfer in="SourceGraphic"><feFuncA type="table" tableValues="1.0 0.0"/></feComponentTransfer></filter><mask id="__lottie_element_1859_2" mask-type="alpha"><g filter="url(#__lottie_element_1872)"><rect width="430" height="430" x="0" y="0" fill="#ffffff" opacity="0"/><use xmlns:ns2="http://www.w3.org/1999/xlink" ns2:href="#__lottie_element_1859"/></g></mask></defs><g clip-path="url(#__lottie_element_1850)"><g clip-path="url(#__lottie_element_1852)" transform="matrix(1,0,0,1,0,0)" opacity="1" style="display: block;"><g mask="url(#__lottie_element_1859_2)" style="display: block;"><g transform="matrix(0.99985271692276,0.017161501571536064,-0.017161501571536064,0.99985271692276,287.38787841796875,307.33184814453125)" opacity="1"><g opacity="1" transform="matrix(1,0,0,1,0,0)"><path stroke-linecap="round" stroke-linejoin="round" fill-opacity="0" class="primary" stroke="rgb(18,19,49)" stroke-opacity="1" stroke-width="12" d=" M-34.09000015258789,-160.03500366210938 C0.796999990940094,-98.71800231933594 52.4400634765625,35.81795883178711 52.4400634765625,35.81795883178711 C52.4400634765625,35.81795883178711 -6.306946754455566,13.33398151397705 -6.306946754455566,13.33398151397705 C-6.306946754455566,13.33398151397705 -29.615924835205078,71.76998901367188 -29.615924835205078,71.76998901367188 C-29.615924835205078,71.76998901367188 -83.56999969482422,-64.37799835205078 -121.56999969482422,-131.0850067138672"/></g></g></g><g mask="url(#__lottie_element_1865_2)" style="display: block;"><g transform="matrix(1,0,0,1,140.0229949951172,306.0789794921875)" opacity="1"><g opacity="1" transform="matrix(1,0,0,1,0,0)"><path stroke-linecap="round" stroke-linejoin="round" fill-opacity="0" class="primary" stroke="rgb(18,19,49)" stroke-opacity="1" stroke-width="12" d=" M31.100000381469727,-152.0399932861328 C-2.7899999618530273,-93.38700103759766 -76.69844818115234,16.5015811920166 -76.69844818115234,16.5015811920166 C-76.69844818115234,16.5015811920166 -14.960562705993652,3.829098701477051 -14.960562705993652,3.829098701477051 C-14.960562705993652,3.829098701477051 -1.4318829774856567,65.38302612304688 -1.4318829774856567,65.38302612304688 C-1.4318829774856567,65.38302612304688 81.57099914550781,-59.03300094604492 118.56999969482422,-123.06999969482422 C118.5719985961914,-123.072998046875 118.56999969482422,-123.08000183105469 118.56999969482422,-123.08000183105469"/></g></g></g><g transform="matrix(1,0,0,1,-35,-35)" opacity="1" style="display: block;"><g opacity="1" transform="matrix(1,0,0,1,250,201.76499938964844)"><path stroke-linecap="round" stroke-linejoin="round" fill-opacity="0" class="primary" stroke="rgb(18,19,49)" stroke-opacity="1" stroke-width="12" d=" M-117.52799987792969,-0.26499998569488525 C-117.52799987792969,-0.26499998569488525 -92.20600128173828,-30.389999389648438 -92.20600128173828,-30.389999389648438 C-92.20600128173828,-30.389999389648438 -94.98899841308594,-69.6510009765625 -94.98899841308594,-69.6510009765625 C-94.98899841308594,-69.6510009765625 -56.775001525878906,-79.11499786376953 -56.775001525878906,-79.11499786376953 C-56.775001525878906,-79.11499786376953 -35.98099899291992,-112.54499816894531 -35.98099899291992,-112.54499816894531 C-35.98099899291992,-112.54499816894531 0.5,-97.71399688720703 0.5,-97.71399688720703 C0.5,-97.71399688720703 36.98099899291992,-112.54499816894531 36.98099899291992,-112.54499816894531 C36.98099899291992,-112.54499816894531 57.775001525878906,-79.11399841308594 57.775001525878906,-79.11399841308594 C57.775001525878906,-79.11399841308594 95.98999786376953,-69.6500015258789 95.98999786376953,-69.6500015258789 C95.98999786376953,-69.6500015258789 93.20600128173828,-30.389999389648438 93.20600128173828,-30.389999389648438 C93.20600128173828,-30.389999389648438 118.52799987792969,-0.26499998569488525 118.52799987792969,-0.26499998569488525 C118.52799987792969,-0.26499998569488525 93.20600128173828,29.860000610351562 93.20600128173828,29.860000610351562 C93.20600128173828,29.860000610351562 95.98899841308594,69.12000274658203 95.98899841308594,69.12000274658203 C95.98899841308594,69.12000274658203 57.775001525878906,78.58399963378906 57.775001525878906,78.58399963378906 C57.775001525878906,78.58399963378906 36.98099899291992,112.01399993896484 36.98099899291992,112.01399993896484 C36.98099899291992,112.01399993896484 0.5,97.18299865722656 0.5,97.18299865722656 C0.5,97.18299865722656 -35.98099899291992,112.01399993896484 -35.98099899291992,112.01399993896484 C-35.98099899291992,112.01399993896484 -56.775001525878906,78.58399963378906 -56.775001525878906,78.58399963378906 C-56.775001525878906,78.58399963378906 -94.98999786376953,69.11900329589844 -94.98999786376953,69.11900329589844 C-94.98999786376953,69.11900329589844 -92.20600128173828,29.860000610351562 -92.20600128173828,29.860000610351562 C-92.20600128173828,29.860000610351562 -117.52799987792969,-0.26499998569488525 -117.52799987792969,-0.26499998569488525z M-68.01699829101562,0 C-68.01699829101562,37.564998626708984 -37.564998626708984,68.01699829101562 0,68.01699829101562 C37.564998626708984,68.01699829101562 68.01699829101562,37.564998626708984 68.01699829101562,0 C68.01699829101562,-37.564998626708984 37.564998626708984,-68.01699829101562 0,-68.01699829101562 C-37.564998626708984,-68.01699829101562 -68.01699829101562,-37.564998626708984 -68.01699829101562,0z"/></g><g opacity="1" transform="matrix(1,0,0,1,245.63600158691406,201.76499938964844)"><path stroke-linecap="round" stroke-linejoin="round" fill-opacity="0" class="secondary" stroke="rgb(83,83,83)" stroke-opacity="1" stroke-width="12" d=" M-8.706000328063965,-10.177000045776367 C-8.706000328063965,-10.177000045776367 8.706000328063965,-27.589000701904297 8.706000328063965,-27.589000701904297 C8.706000328063965,-27.589000701904297 8.706000328063965,27.589000701904297 8.706000328063965,27.589000701904297"/></g><g opacity="1" transform="matrix(1,0,0,1,0,0)"><g opacity="1" transform="matrix(1,0,0,1,296.11199951171875,201.10699462890625)"><path stroke-linecap="round" stroke-linejoin="round" fill-opacity="0" class="secondary" stroke="rgb(83,83,83)" stroke-opacity="1" stroke-width="12" d=" M-92.38099670410156,1.315999984741211 C-92.38099670410156,1.315999984741211 -92.06600189208984,1.315999984741211 -92.06600189208984,1.315999984741211 M-0.15700000524520874,0 C-0.15700000524520874,0 0.15700000524520874,0 0.15700000524520874,0"/></g></g></g></g></g></svg>