<?xml version="1.0" standalone="no"?><svg xmlns="http://www.w3.org/2000/svg" viewBox="0 0 1440 320"><path fill="#ffffff" fill-opacity="1" d="M0,256L0,96L80,96L80,96L160,96L160,96L240,96L240,96L320,96L320,224L400,224L400,32L480,32L480,64L560,64L560,192L640,192L640,224L720,224L720,192L800,192L800,192L880,192L880,96L960,96L960,128L1040,128L1040,128L1120,128L1120,288L1200,288L1200,192L1280,192L1280,128L1360,128L1360,64L1440,64L1440,320L1360,320L1360,320L1280,320L1280,320L1200,320L1200,320L1120,320L1120,320L1040,320L1040,320L960,320L960,320L880,320L880,320L800,320L800,320L720,320L720,320L640,320L640,320L560,320L560,320L480,320L480,320L400,320L400,320L320,320L320,320L240,320L240,320L160,320L160,320L80,320L80,320L0,320L0,320Z"></path></svg>